<svg width="27" height="28" viewBox="0 0 27 28" fill="none" xmlns="http://www.w3.org/2000/svg">
<g clip-path="url(#clip0_15_44)">
<path d="M13.5 2.33334C8.52944 2.33334 4.5 6.51201 4.5 11.6667C4.5 18.9233 10.1813 18.865 11.5425 23.0767L12.1163 24.8733C12.2771 25.3696 12.7371 25.694 13.2413 25.6667H13.8713C14.3754 25.694 14.8354 25.3696 14.9963 24.8733L15.57 23.0767C16.875 18.865 22.5 18.9233 22.5 11.6667C22.5 6.51201 18.4706 2.33334 13.5 2.33334ZM13.5 15.1667C11.636 15.1667 10.125 13.5997 10.125 11.6667C10.125 9.73367 11.636 8.16667 13.5 8.16667C15.364 8.16667 16.875 9.73367 16.875 11.6667C16.875 12.5949 16.5194 13.4852 15.8865 14.1415C15.2536 14.7979 14.3951 15.1667 13.5 15.1667Z" fill="#A6BE2B"/>
</g>
<defs>
<clipPath id="clip0_15_44">
<rect width="27" height="28" fill="white"/>
</clipPath>
</defs>
</svg>
